{
  "accessors": [
    {
      "bufferView": 2,
      "componentType": 5126,
      "count": 3344,
      "max": [
        489.0688781738281,
        1361.669677734375,
        630.739990234375
      ],
      "min": [
        -489.0688781738281,
        18.183494567871094,
        -434.5408935546875
      ],
      "type": "VEC3"
    },
    {
      "bufferView": 2,
      "byteOffset": 40128,
      "componentType": 5126,
      "count": 3344,
      "max": [
        0.9995076656341553,
        0.9999629259109497,
        0.9999998211860657
      ],
      "min": [
        -0.9995076656341553,
        -0.9999407529830933,
        -0.9997588396072388
      ],
      "type": "VEC3"
    },
    {
      "bufferView": 1,
      "componentType": 5126,
      "count": 3344,
      "max": [
        0.9792224168777466,
        0.9891000390052795
      ],
      "min": [
        0.010900042951107025,
        0.010900020599365234
      ],
      "type": "VEC2"
    },
    {
      "bufferView": 1,
      "byteOffset": 26752,
      "componentType": 5126,
      "count": 3344,
      "max": [
        0.9792224168777466,
        0.9891000390052795
      ],
      "min": [
        0.010900042951107025,
        0.010900020599365234
      ],
      "type": "VEC2"
    },
    {
      "bufferView": 0,
      "componentType": 5125,
      "count": 16320,
      "type": "SCALAR"
    }
  ],
  "asset": {
    "extras": {
      "author": "RafaelScopel (https://sketchfab.com/RafaelScopel)",
      "license": "CC-BY-4.0 (http://creativecommons.org/licenses/by/4.0/)",
      "source": "https://sketchfab.com/3d-models/duck-duck-duck-faf58bd8859744a2ac73719fefc5b454",
      "title": "Duck duck duck"
    },
    "generator": "Sketchfab-11.53.2",
    "version": "2.0"
  },
  "bufferViews": [
    {
      "buffer": 0,
      "byteLength": 65280,
      "name": "floatBufferViews",
      "target": 34963
    },
    {
      "buffer": 0,
      "byteLength": 53504,
      "byteOffset": 65280,
      "byteStride": 8,
      "name": "floatBufferViews",
      "target": 34962
    },
    {
      "buffer": 0,
      "byteLength": 80256,
      "byteOffset": 118784,
      "byteStride": 12,
      "name": "floatBufferViews",
      "target": 34962
    }
  ],
  "buffers": [
    {
      "byteLength": 199040,
      "uri": "scene.bin"
    }
  ],
  "images": [
    {
      "uri": "textures/Duck_baseColor.png"
    },
    {
      "uri": "textures/Duck_metallicRoughness.png"
    }
  ],
  "materials": [
    {
      "name": "Duck",
      "occlusionTexture": {
        "index": 1
      },
      "pbrMetallicRoughness": {
        "baseColorTexture": {
          "index": 0
        },
        "metallicRoughnessTexture": {
          "index": 1
        },
        "roughnessFactor": 0.6401282308520146
      }
    }
  ],
  "meshes": [
    {
      "name": "Duck_Duck_0",
      "primitives": [
        {
          "attributes": {
            "NORMAL": 1,
            "POSITION": 0,
            "TEXCOORD_0": 2,
            "TEXCOORD_1": 3
          },
          "indices": 4,
          "material": 0,
          "mode": 4
        }
      ]
    }
  ],
  "nodes": [
    {
      "children": [
        1
      ],
      "matrix": [
        1.0,
        0.0,
        0.0,
        0.0,
        0.0,
        2.220446049250313e-16,
        -1.0,
        0.0,
        0.0,
        1.0,
        2.220446049250313e-16,
        0.0,
        0.0,
        0.0,
        0.0,
        1.0
      ],
      "name": "Sketchfab_model"
    },
    {
      "children": [
        2
      ],
      "matrix": [
        0.009999999776482582,
        0.0,
        0.0,
        0.0,
        0.0,
        0.0,
        0.009999999776482582,
        0.0,
        0.0,
        -0.009999999776482582,
        0.0,
        0.0,
        0.0,
        0.0,
        0.0,
        1.0
      ],
      "name": "9d8917e636d14a85b332dc0250a8ff83.fbx"
    },
    {
      "children": [
        3
      ],
      "name": "RootNode"
    },
    {
      "children": [
        4
      ],
      "matrix": [
        0.13837967813014984,
        0.0,
        0.0,
        0.0,
        0.0,
        0.13837967813014984,
        0.0,
        0.0,
        0.0,
        0.0,
        0.13837967813014984,
        0.0,
        0.0,
        -3.9629600048065186,
        0.0,
        1.0
      ],
      "name": "Duck"
    },
    {
      "mesh": 0,
      "name": "Duck_Duck_0"
    }
  ],
  "samplers": [
    {
      "magFilter": 9729,
      "minFilter": 9987,
      "wrapS": 10497,
      "wrapT": 10497
    }
  ],
  "scene": 0,
  "scenes": [
    {
      "name": "Sketchfab_Scene",
      "nodes": [
        0
      ]
    }
  ],
  "textures": [
    {
      "sampler": 0,
      "source": 0
    },
    {
      "sampler": 0,
      "source": 1
    }
  ]
}
